<svg xmlns="http://www.w3.org/2000/svg" viewBox="0 0 525.12 57.17"><defs><style>.cls-1{fill:#fff;}</style></defs><g id="Capa_2" data-name="Capa 2"><g id="Capa_1-2" data-name="Capa 1"><path class="cls-1" d="M22.94,3.05q6.79,0,10.41,3.47T37,16.31a12.85,12.85,0,0,1-1.52,6.18A11.33,11.33,0,0,1,31,27a15.61,15.61,0,0,1-7.28,1.83l-.08-2.13a20.92,20.92,0,0,1,5.49.76,16.11,16.11,0,0,1,5.18,2.44,13.15,13.15,0,0,1,3.89,4.42,13.78,13.78,0,0,1,1.52,6.79,16.68,16.68,0,0,1-1.44,7.31,12.5,12.5,0,0,1-3.85,4.73,15.63,15.63,0,0,1-5.34,2.52,24.09,24.09,0,0,1-6,.76h-20a3,3,0,0,1-2.21-.92A3,3,0,0,1,0,53.28V6.17A3,3,0,0,1,.92,4a3,3,0,0,1,2.21-.91Zm-.83,6H5.72l.91-1.29v18.9l-.84-1H22.18a8.32,8.32,0,0,0,5.76-2.17q2.4-2.18,2.4-6.37a8,8,0,0,0-2.17-6A8.36,8.36,0,0,0,22.11,9.07Zm.53,22.72H6.1l.53-.54v19.9L6,50.46H22.94a11.3,11.3,0,0,0,7.28-2.28q2.87-2.3,2.86-7.09a9.28,9.28,0,0,0-1.52-5.72,8.07,8.07,0,0,0-3.93-2.78A15.48,15.48,0,0,0,22.64,31.79Z"/><path class="cls-1" d="M51.83,56.41a2.9,2.9,0,0,1-2.17-.92,3.08,3.08,0,0,1-.87-2.21V20.12a3,3,0,0,1,.87-2.24A2.94,2.94,0,0,1,51.83,17a2.88,2.88,0,0,1,2.21.88,3.1,3.1,0,0,1,.84,2.24v10L54,28.51a16.43,16.43,0,0,1,1.64-4.61,16.06,16.06,0,0,1,3-4A13.68,13.68,0,0,1,62.81,17,12.79,12.79,0,0,1,68,16a6.18,6.18,0,0,1,3.08.8,2.47,2.47,0,0,1,1.41,2.25,3.19,3.19,0,0,1-.84,2.4,2.69,2.69,0,0,1-1.9.8,4.17,4.17,0,0,1-1.91-.46,5.14,5.14,0,0,0-2.28-.46,7.56,7.56,0,0,0-3.78,1.07,12.68,12.68,0,0,0-3.43,2.94,15.3,15.3,0,0,0-2.51,4.26,13.75,13.75,0,0,0-1,5.15V53.28A3.08,3.08,0,0,1,54,55.49,2.91,2.91,0,0,1,51.83,56.41Z"/><path class="cls-1" d="M82.1,11.28a4.32,4.32,0,0,1-2.82-.76,2.91,2.91,0,0,1-.92-2.36V7.09a2.77,2.77,0,0,1,1-2.36A4.53,4.53,0,0,1,82.17,4a4.22,4.22,0,0,1,2.75.77,2.88,2.88,0,0,1,.91,2.36V8.16a2.86,2.86,0,0,1-1,2.36A4.36,4.36,0,0,1,82.1,11.28Zm3.12,42a3,3,0,0,1-.88,2.21,2.87,2.87,0,0,1-2.17.92,3,3,0,0,1-2.25-.92,3.08,3.08,0,0,1-.87-2.21V19.51a3.1,3.1,0,0,1,.87-2.21,3,3,0,0,1,2.25-.91,2.86,2.86,0,0,1,2.17.91,3.06,3.06,0,0,1,.88,2.21Z"/><path class="cls-1" d="M128.29,16.62a2.94,2.94,0,0,1,2.21.87,3,3,0,0,1,.84,2.18V53.28a3.09,3.09,0,0,1-.88,2.21,2.89,2.89,0,0,1-2.17.92,2.85,2.85,0,0,1-2.21-.92,3.14,3.14,0,0,1-.84-2.21V46l1.45-.15a7.28,7.28,0,0,1-1.15,3.7,15,15,0,0,1-3.12,3.66,17,17,0,0,1-4.69,2.82,15.17,15.17,0,0,1-5.75,1.1,16.63,16.63,0,0,1-9.38-2.71,19.07,19.07,0,0,1-6.52-7.35,22.77,22.77,0,0,1-2.4-10.6,22.72,22.72,0,0,1,2.4-10.63,18.54,18.54,0,0,1,6.52-7.24A16.57,16.57,0,0,1,111.75,16a17,17,0,0,1,6.1,1.07A16,16,0,0,1,122.76,20,14.41,14.41,0,0,1,126,24a9.3,9.3,0,0,1,1.18,4.42l-2-.45V19.67a3,3,0,0,1,.84-2.18A2.92,2.92,0,0,1,128.29,16.62Zm-15.7,34.91a11.74,11.74,0,0,0,6.74-2,13.33,13.33,0,0,0,4.58-5.38,17.4,17.4,0,0,0,1.63-7.66A17,17,0,0,0,123.91,29a13.41,13.41,0,0,0-4.58-5.34,12.45,12.45,0,0,0-13.41,0,13.4,13.4,0,0,0-4.62,5.3,16.94,16.94,0,0,0-1.67,7.62,17.14,17.14,0,0,0,1.67,7.66,13.58,13.58,0,0,0,4.62,5.38A11.63,11.63,0,0,0,112.59,51.53Z"/><path class="cls-1" d="M162.21,16q5.17,0,8.16,2.13a11.62,11.62,0,0,1,4.23,5.72,24.52,24.52,0,0,1,1.25,8.08V53.28a3.08,3.08,0,0,1-.87,2.21,2.91,2.91,0,0,1-2.18.92,2.87,2.87,0,0,1-2.21-.92,3.13,3.13,0,0,1-.83-2.21V32.09a15.15,15.15,0,0,0-.88-5.26,7.73,7.73,0,0,0-2.94-3.77,9.53,9.53,0,0,0-5.48-1.41,12.33,12.33,0,0,0-5.87,1.41,11.57,11.57,0,0,0-4.27,3.77,9.16,9.16,0,0,0-1.6,5.26V53.28a3.09,3.09,0,0,1-.88,2.21,2.9,2.9,0,0,1-2.17.92,2.87,2.87,0,0,1-2.17-.92,3,3,0,0,1-.88-2.21V20.12a3,3,0,0,1,.88-2.24,3.16,3.16,0,0,1,4.38,0,3.1,3.1,0,0,1,.84,2.24v5.34l-1.53,1.68a10.88,10.88,0,0,1,1.76-4,15.83,15.83,0,0,1,3.43-3.62A17.73,17.73,0,0,1,157,17,14.85,14.85,0,0,1,162.21,16Z"/><path class="cls-1" d="M224.56,5.64a4.05,4.05,0,0,1,2.33,3.13,4.66,4.66,0,0,1-1.11,3.88,3.45,3.45,0,0,1-2.55,1.53,5.91,5.91,0,0,1-3.16-.61,20,20,0,0,0-3.85-1.3,19.45,19.45,0,0,0-4.23-.45,19.75,19.75,0,0,0-7.36,1.29,15.6,15.6,0,0,0-5.53,3.7,16,16,0,0,0-3.47,5.68,21.39,21.39,0,0,0-1.18,7.24,22.24,22.24,0,0,0,1.34,8.08,15.88,15.88,0,0,0,3.69,5.72,15,15,0,0,0,5.57,3.39A21,21,0,0,0,212,48a22,22,0,0,0,4.11-.38,14.18,14.18,0,0,0,4-1.37,5.32,5.32,0,0,1,3.16-.53,4,4,0,0,1,2.63,1.6,4.61,4.61,0,0,1,1.1,3.92,4,4,0,0,1-2.32,2.94,26.54,26.54,0,0,1-4.08,1.64,31.6,31.6,0,0,1-4.23,1,27.13,27.13,0,0,1-4.34.34,30.75,30.75,0,0,1-10.41-1.75,26.36,26.36,0,0,1-8.77-5.19,24,24,0,0,1-6.06-8.57,30.08,30.08,0,0,1-2.21-11.93,28.6,28.6,0,0,1,2-10.83,25.23,25.23,0,0,1,5.72-8.57A26.47,26.47,0,0,1,201,4.69a29.11,29.11,0,0,1,11-2,28.07,28.07,0,0,1,6.55.76A27,27,0,0,1,224.56,5.64Z"/><path class="cls-1" d="M273.42,36.06a21.37,21.37,0,0,1-2.78,11,19.88,19.88,0,0,1-7.47,7.43,21.9,21.9,0,0,1-21,0,19.88,19.88,0,0,1-7.47-7.43,21.37,21.37,0,0,1-2.78-11,21.41,21.41,0,0,1,2.78-11,20.28,20.28,0,0,1,7.47-7.47,21.62,21.62,0,0,1,21,0A20.28,20.28,0,0,1,270.64,25,21.41,21.41,0,0,1,273.42,36.06Zm-9.14,0a13.74,13.74,0,0,0-1.57-6.75,11.55,11.55,0,0,0-4.19-4.46,11.42,11.42,0,0,0-11.66,0,11.63,11.63,0,0,0-4.19,4.46,13.74,13.74,0,0,0-1.57,6.75,13.62,13.62,0,0,0,1.57,6.67,11.6,11.6,0,0,0,4.19,4.45,11.36,11.36,0,0,0,11.66,0,11.52,11.52,0,0,0,4.19-4.45A13.62,13.62,0,0,0,264.28,36.06Z"/><path class="cls-1" d="M302.16,14.86a17.41,17.41,0,0,1,9.57,2.71A19.32,19.32,0,0,1,318.44,25a23.33,23.33,0,0,1,2.47,11,23.51,23.51,0,0,1-2.47,11,19.38,19.38,0,0,1-6.64,7.47,16.68,16.68,0,0,1-9.33,2.71,16.29,16.29,0,0,1-5.72-1,18.23,18.23,0,0,1-4.69-2.52,14,14,0,0,1-3.12-3.08A4.9,4.9,0,0,1,287.83,48l2.36-1v5.56a4.6,4.6,0,0,1-1.29,3.32,4.42,4.42,0,0,1-3.28,1.33,4.47,4.47,0,0,1-3.28-1.29,4.58,4.58,0,0,1-1.29-3.36V4.65a4.6,4.6,0,0,1,1.29-3.32,4.71,4.71,0,0,1,6.56,0,4.6,4.6,0,0,1,1.29,3.32V24l-1.29-.68A4.33,4.33,0,0,1,290,20.92a15.64,15.64,0,0,1,2.9-2.82,16.51,16.51,0,0,1,4.23-2.32A14.11,14.11,0,0,1,302.16,14.86ZM301,23.25a10.32,10.32,0,0,0-5.87,1.68,11.33,11.33,0,0,0-3.93,4.53A14.57,14.57,0,0,0,289.81,36a14.87,14.87,0,0,0,1.41,6.52,11.31,11.31,0,0,0,3.93,4.61A10.32,10.32,0,0,0,301,48.79a10.14,10.14,0,0,0,5.83-1.68,11.45,11.45,0,0,0,3.89-4.61A14.87,14.87,0,0,0,312.15,36a14.57,14.57,0,0,0-1.41-6.52,11.48,11.48,0,0,0-3.89-4.53A10.14,10.14,0,0,0,301,23.25Z"/><path class="cls-1" d="M361.54,14.86a4.48,4.48,0,0,1,3.28,1.3,4.55,4.55,0,0,1,1.29,3.35V51.76a4.56,4.56,0,0,1-1.29,3.31,4.68,4.68,0,0,1-6.56,0A4.56,4.56,0,0,1,357,51.76V48l1.67.69a4.28,4.28,0,0,1-1.06,2.4,14.37,14.37,0,0,1-2.9,2.78,17.81,17.81,0,0,1-4.31,2.33,14.93,14.93,0,0,1-5.37,1,17.39,17.39,0,0,1-9.53-2.71A19,19,0,0,1,328.73,47a23.23,23.23,0,0,1-2.48-10.93,23.46,23.46,0,0,1,2.48-11,19.28,19.28,0,0,1,6.67-7.47,16.8,16.8,0,0,1,9.3-2.71,17.64,17.64,0,0,1,6,1,18.17,18.17,0,0,1,4.76,2.51,14.57,14.57,0,0,1,3.13,3.09,5,5,0,0,1,1.1,2.63l-2.74,1V19.51a4.57,4.57,0,0,1,1.29-3.31A4.39,4.39,0,0,1,361.54,14.86Zm-15.4,33.93A10.3,10.3,0,0,0,352,47.11a11.32,11.32,0,0,0,3.93-4.57,14.63,14.63,0,0,0,1.41-6.48,14.8,14.8,0,0,0-1.41-6.56A11.25,11.25,0,0,0,352,24.93a11,11,0,0,0-11.66,0,11.25,11.25,0,0,0-3.93,4.57A14.8,14.8,0,0,0,335,36.06a14.63,14.63,0,0,0,1.41,6.48,11.32,11.32,0,0,0,3.93,4.57A10.2,10.2,0,0,0,346.14,48.79Z"/><path class="cls-1" d="M385.93,51.76a4.47,4.47,0,0,1-1.33,3.31,4.52,4.52,0,0,1-3.32,1.34,4.28,4.28,0,0,1-3.2-1.34,4.56,4.56,0,0,1-1.29-3.31V4.65A4.55,4.55,0,0,1,381.44,0a4.25,4.25,0,0,1,3.23,1.33,4.66,4.66,0,0,1,1.26,3.32Z"/><path class="cls-1" d="M414.67,57.17a22.3,22.3,0,0,1-11.24-2.71,18.61,18.61,0,0,1-7.32-7.35,21.52,21.52,0,0,1-2.55-10.52,23.08,23.08,0,0,1,2.78-11.7,19.55,19.55,0,0,1,7.28-7.43,18.77,18.77,0,0,1,9.53-2.6,17.42,17.42,0,0,1,7.35,1.6,20.15,20.15,0,0,1,6.14,4.39,21.17,21.17,0,0,1,4.23,6.44,19.61,19.61,0,0,1,1.56,7.77A3.91,3.91,0,0,1,431,38a4.84,4.84,0,0,1-3.2,1.14H398.66l-2.28-7.62h28l-1.68,1.52V31a6.94,6.94,0,0,0-1.56-4,10.16,10.16,0,0,0-3.5-2.78,10,10,0,0,0-4.46-1,14.31,14.31,0,0,0-4.27.61,8.14,8.14,0,0,0-3.43,2.06,9.92,9.92,0,0,0-2.29,3.88,19.29,19.29,0,0,0-.84,6.18A13.24,13.24,0,0,0,404,43a11.59,11.59,0,0,0,4.42,4.35,11.77,11.77,0,0,0,5.75,1.49,18,18,0,0,0,4.5-.46,10.06,10.06,0,0,0,2.71-1.11c.68-.43,1.3-.8,1.86-1.1a5.82,5.82,0,0,1,2.6-.69,3.84,3.84,0,0,1,3.88,3.81A4.76,4.76,0,0,1,427.63,53a17.67,17.67,0,0,1-5.57,2.93A22.11,22.11,0,0,1,414.67,57.17Z"/><path class="cls-1" d="M473.06,0a4.44,4.44,0,0,1,3.28,1.3,4.54,4.54,0,0,1,1.29,3.35V51.76a4.56,4.56,0,0,1-1.29,3.31,4.68,4.68,0,0,1-6.56,0,4.56,4.56,0,0,1-1.29-3.31V48l1.67.69a4.24,4.24,0,0,1-1.07,2.4,14.3,14.3,0,0,1-2.89,2.78,17.81,17.81,0,0,1-4.31,2.33,14.93,14.93,0,0,1-5.37,1A17.36,17.36,0,0,1,447,54.46,19,19,0,0,1,440.24,47a23.35,23.35,0,0,1-2.47-10.93,23.58,23.58,0,0,1,2.47-11,19.36,19.36,0,0,1,6.67-7.47,16.85,16.85,0,0,1,9.3-2.71,17.56,17.56,0,0,1,6,1A18.24,18.24,0,0,1,467,18.37a14.5,14.5,0,0,1,3.12,3.09,4.9,4.9,0,0,1,1.11,2.63l-2.74,1V4.65a4.6,4.6,0,0,1,1.29-3.32A4.41,4.41,0,0,1,473.06,0Zm-15.4,48.79a10.32,10.32,0,0,0,5.87-1.68,11.4,11.4,0,0,0,3.93-4.57,14.63,14.63,0,0,0,1.41-6.48,14.8,14.8,0,0,0-1.41-6.56,11.33,11.33,0,0,0-3.93-4.57,10.32,10.32,0,0,0-5.87-1.68,10.17,10.17,0,0,0-5.79,1.68,11.25,11.25,0,0,0-3.93,4.57,14.8,14.8,0,0,0-1.41,6.56,14.63,14.63,0,0,0,1.41,6.48,11.32,11.32,0,0,0,3.93,4.57A10.17,10.17,0,0,0,457.66,48.79Z"/><path class="cls-1" d="M520.55,14.86a4.48,4.48,0,0,1,3.28,1.3,4.55,4.55,0,0,1,1.29,3.35V51.76a4.56,4.56,0,0,1-1.29,3.31,4.68,4.68,0,0,1-6.56,0,4.52,4.52,0,0,1-1.3-3.31V48l1.68.69a4.31,4.31,0,0,1-1.07,2.4,14.3,14.3,0,0,1-2.89,2.78,17.81,17.81,0,0,1-4.31,2.33,14.93,14.93,0,0,1-5.37,1,17.36,17.36,0,0,1-9.53-2.71A19,19,0,0,1,487.73,47a23.35,23.35,0,0,1-2.48-10.93,23.58,23.58,0,0,1,2.48-11,19.36,19.36,0,0,1,6.67-7.47,16.85,16.85,0,0,1,9.3-2.71,17.64,17.64,0,0,1,6,1,18.24,18.24,0,0,1,4.77,2.51,14.5,14.5,0,0,1,3.12,3.09,4.9,4.9,0,0,1,1.11,2.63l-2.75,1V19.51a4.54,4.54,0,0,1,1.3-3.31A4.36,4.36,0,0,1,520.55,14.86Zm-15.4,33.93A10.34,10.34,0,0,0,511,47.11a11.3,11.3,0,0,0,3.92-4.57,14.63,14.63,0,0,0,1.41-6.48,14.8,14.8,0,0,0-1.41-6.56A11.23,11.23,0,0,0,511,24.93a10.34,10.34,0,0,0-5.87-1.68,10.15,10.15,0,0,0-5.79,1.68,11.25,11.25,0,0,0-3.93,4.57A14.8,14.8,0,0,0,494,36.06a14.63,14.63,0,0,0,1.41,6.48,11.32,11.32,0,0,0,3.93,4.57A10.15,10.15,0,0,0,505.15,48.79Z"/></g></g></svg>