<svg xmlns="http://www.w3.org/2000/svg" viewBox="0 0 113.7 118.87"><defs><style>.cls-1{fill:#fff;}</style></defs><g id="Capa_2" data-name="Capa 2"><g id="Capa_1-2" data-name="Capa 1"><path class="cls-1" d="M70.12,76.67a18.16,18.16,0,0,1-10.3,4.18A18.34,18.34,0,1,1,63.57,45a7.11,7.11,0,0,0,7.95-2.83h0a7.1,7.1,0,0,0-3.83-10.76A32.52,32.52,0,1,0,79.28,87.52,7.09,7.09,0,0,0,78.36,76h0A7.11,7.11,0,0,0,70.12,76.67Z"/><path class="cls-1" d="M60.74,5.29a56.72,56.72,0,0,0-44.61,17l.14-14.47A7.78,7.78,0,0,0,8.49,0h0A7.79,7.79,0,0,0,.71,7.68L0,60.34c-.55,31.46,24.27,57.9,55.72,58.52a56.86,56.86,0,0,0,5-113.57Zm-2.4,99.79A43.09,43.09,0,1,1,99.83,65,43.09,43.09,0,0,1,58.34,105.08Z"/></g></g></svg>