<svg xmlns="http://www.w3.org/2000/svg" viewBox="0 0 136.36 25.93"><defs><style>.cls-1{fill:#fff;}</style></defs><g id="Capa_2" data-name="Capa 2"><g id="Capa_1-2" data-name="Capa 1"><path class="cls-1" d="M9.58,5.87A12.83,12.83,0,0,1,13,6.28a6.64,6.64,0,0,1,2.42,1.11A2,2,0,0,1,16.31,9,1.61,1.61,0,0,1,16,10a1,1,0,0,1-.91.45,1.54,1.54,0,0,1-.83-.2,3.48,3.48,0,0,1-.6-.49,3.83,3.83,0,0,0-.76-.54,6.24,6.24,0,0,0-1.3-.39,9,9,0,0,0-1.71-.16,6.67,6.67,0,0,0-3.57,1,6.75,6.75,0,0,0-2.43,2.6A7.8,7.8,0,0,0,3,15.9a7.86,7.86,0,0,0,.85,3.71,6.63,6.63,0,0,0,2.38,2.6,6.38,6.38,0,0,0,3.53,1,8,8,0,0,0,2-.22,6.5,6.5,0,0,0,1.3-.52,4.08,4.08,0,0,0,1-.75,1.28,1.28,0,0,1,.95-.37,1.21,1.21,0,0,1,1,.41,1.5,1.5,0,0,1,.34,1,2,2,0,0,1-.93,1.45A7.83,7.83,0,0,1,13,25.43a12,12,0,0,1-3.58.5,9.14,9.14,0,0,1-4.94-1.32A9,9,0,0,1,1.17,21,11,11,0,0,1,0,15.9a10.6,10.6,0,0,1,1.21-5.09A9.17,9.17,0,0,1,9.58,5.87Z"/><path class="cls-1" d="M21.8,25.56a1.38,1.38,0,0,1-1.05-.45A1.49,1.49,0,0,1,20.32,24V7.87a1.45,1.45,0,0,1,.43-1.09,1.53,1.53,0,0,1,2.13,0,1.52,1.52,0,0,1,.41,1.09v4.87L22.84,12a8.12,8.12,0,0,1,2.27-4.22,6.6,6.6,0,0,1,2-1.37,6.35,6.35,0,0,1,2.53-.5,3,3,0,0,1,1.5.39,1.2,1.2,0,0,1,.69,1.09,1.55,1.55,0,0,1-.41,1.17,1.3,1.3,0,0,1-.93.39,2,2,0,0,1-.93-.22,2.41,2.41,0,0,0-1.11-.22A3.65,3.65,0,0,0,26.65,9,6.18,6.18,0,0,0,25,10.42a7.57,7.57,0,0,0-1.23,2.08A6.74,6.74,0,0,0,23.29,15v9a1.49,1.49,0,0,1-.43,1.08A1.4,1.4,0,0,1,21.8,25.56Z"/><path class="cls-1" d="M43.09,25.93a10.28,10.28,0,0,1-5.2-1.27,8.84,8.84,0,0,1-3.47-3.47,10.11,10.11,0,0,1-1.25-5.11,11.14,11.14,0,0,1,1.28-5.51,9.07,9.07,0,0,1,3.34-3.49,8.48,8.48,0,0,1,4.37-1.21,8.87,8.87,0,0,1,3.32.63,8.39,8.39,0,0,1,2.83,1.86,9.17,9.17,0,0,1,2,2.89A9.53,9.53,0,0,1,51.07,15a1.35,1.35,0,0,1-.48,1,1.53,1.53,0,0,1-1,.39H34.88l-.67-2.57h14.3l-.59.53v-.82a4.87,4.87,0,0,0-1-2.62,6.09,6.09,0,0,0-2.12-1.69,6,6,0,0,0-2.62-.6A6.35,6.35,0,0,0,40,9.06a5.69,5.69,0,0,0-2,1.27,6,6,0,0,0-1.39,2.22,9.31,9.31,0,0,0-.52,3.31,7.94,7.94,0,0,0,.87,3.79,6.56,6.56,0,0,0,2.43,2.58,6.82,6.82,0,0,0,3.61.95A6.56,6.56,0,0,0,46.91,22a8.38,8.38,0,0,0,1.19-1,1.59,1.59,0,0,1,.93-.34A1.3,1.3,0,0,1,50,21a1.22,1.22,0,0,1,.37.9,1.49,1.49,0,0,1-.63,1.15,9,9,0,0,1-2.82,2A8.69,8.69,0,0,1,43.09,25.93Z"/><path class="cls-1" d="M71.13,6.17a1.43,1.43,0,0,1,1.08.42,1.5,1.5,0,0,1,.41,1.06V24a1.49,1.49,0,0,1-.43,1.08,1.4,1.4,0,0,1-1.06.45,1.37,1.37,0,0,1-1.07-.45A1.52,1.52,0,0,1,69.65,24V20.5l.7-.07a3.56,3.56,0,0,1-.55,1.8A7.19,7.19,0,0,1,68.27,24,8.06,8.06,0,0,1,66,25.39a7.36,7.36,0,0,1-2.81.54,8.07,8.07,0,0,1-4.56-1.32A9.24,9.24,0,0,1,55.44,21a11.08,11.08,0,0,1-1.17-5.16,11,11,0,0,1,1.17-5.18,9,9,0,0,1,3.18-3.53,8.11,8.11,0,0,1,4.45-1.28,8.2,8.2,0,0,1,3,.52,7.92,7.92,0,0,1,2.4,1.41,7,7,0,0,1,1.6,2,4.58,4.58,0,0,1,.57,2.15l-1-.22v-4a1.46,1.46,0,0,1,.41-1.06A1.42,1.42,0,0,1,71.13,6.17Zm-7.65,17a5.71,5.71,0,0,0,3.29-1A6.51,6.51,0,0,0,69,19.59a8.48,8.48,0,0,0,.8-3.73,8.32,8.32,0,0,0-.8-3.68,6.65,6.65,0,0,0-2.23-2.6,6.1,6.1,0,0,0-6.54,0A6.68,6.68,0,0,0,58,12.15a8.23,8.23,0,0,0-.81,3.71A8.34,8.34,0,0,0,58,19.59a6.63,6.63,0,0,0,2.25,2.62A5.63,5.63,0,0,0,63.48,23.18Z"/><path class="cls-1" d="M77.37,6.46H86.1a1.32,1.32,0,0,1,1,.41,1.4,1.4,0,0,1,.39,1,1.28,1.28,0,0,1-.39,1,1.34,1.34,0,0,1-1,.39H77.37a1.34,1.34,0,0,1-1-.41,1.32,1.32,0,0,1,0-2A1.4,1.4,0,0,1,77.37,6.46Zm3.9-5a1.34,1.34,0,0,1,1,.45,1.52,1.52,0,0,1,.41,1.07V20.84A2.79,2.79,0,0,0,83,22.18a1.36,1.36,0,0,0,.69.61,2.28,2.28,0,0,0,.83.17,1.6,1.6,0,0,0,.65-.13,1.51,1.51,0,0,1,.65-.13.9.9,0,0,1,.69.35,1.31,1.31,0,0,1,.32.91A1.34,1.34,0,0,1,86,25.09a3.35,3.35,0,0,1-1.75.47c-.35,0-.77,0-1.28-.08A3.87,3.87,0,0,1,81.5,25a3.2,3.2,0,0,1-1.25-1.36,5.78,5.78,0,0,1-.5-2.65V2.93a1.44,1.44,0,0,1,.45-1.07A1.44,1.44,0,0,1,81.27,1.41Z"/><path class="cls-1" d="M92.94,3.57a2.12,2.12,0,0,1-1.38-.38A1.39,1.39,0,0,1,91.12,2V1.52A1.36,1.36,0,0,1,91.6.37,2.19,2.19,0,0,1,93,0a2,2,0,0,1,1.34.37,1.41,1.41,0,0,1,.45,1.15V2a1.37,1.37,0,0,1-.47,1.15A2.11,2.11,0,0,1,92.94,3.57ZM94.46,24A1.49,1.49,0,0,1,94,25.11a1.4,1.4,0,0,1-1.06.45,1.43,1.43,0,0,1-1.09-.45A1.49,1.49,0,0,1,91.45,24V7.58a1.49,1.49,0,0,1,.43-1.08A1.43,1.43,0,0,1,93,6.05,1.4,1.4,0,0,1,94,6.5a1.49,1.49,0,0,1,.43,1.08Z"/><path class="cls-1" d="M99.81,6a1.63,1.63,0,0,1,.85.24,1.43,1.43,0,0,1,.6.72l6.16,14.45-.59.3L113.07,7a1.36,1.36,0,0,1,1.41-1,1.4,1.4,0,0,1,1,.37,1.25,1.25,0,0,1,.4,1,1.32,1.32,0,0,1,0,.41c0,.13-.08.25-.13.37L108.5,24.59a1.44,1.44,0,0,1-1.3,1,1.33,1.33,0,0,1-.91-.19,1.58,1.58,0,0,1-.65-.78L98.47,8.13l-.09-.31a1.54,1.54,0,0,1-.06-.43A1.42,1.42,0,0,1,99.81,6Z"/><path class="cls-1" d="M128.37,25.93a10.3,10.3,0,0,1-5.2-1.27,9,9,0,0,1-3.47-3.47,10.2,10.2,0,0,1-1.24-5.11,11,11,0,0,1,1.28-5.51,9,9,0,0,1,3.34-3.49,8.44,8.44,0,0,1,4.36-1.21,8.88,8.88,0,0,1,3.33.63,8.44,8.44,0,0,1,2.82,1.86,9.37,9.37,0,0,1,2,2.89,9.89,9.89,0,0,1,.78,3.79,1.42,1.42,0,0,1-.48,1,1.55,1.55,0,0,1-1,.39H120.16l-.66-2.57h14.3l-.6.53v-.82a4.87,4.87,0,0,0-1-2.62,6.08,6.08,0,0,0-4.74-2.29,6.35,6.35,0,0,0-2.21.41,5.66,5.66,0,0,0-2,1.27,6,6,0,0,0-1.4,2.22,9.54,9.54,0,0,0-.52,3.31,7.83,7.83,0,0,0,.88,3.79,6.56,6.56,0,0,0,2.43,2.58,6.81,6.81,0,0,0,3.6.95A6.56,6.56,0,0,0,132.2,22a8.38,8.38,0,0,0,1.19-1,1.59,1.59,0,0,1,.93-.34,1.3,1.3,0,0,1,.93.37,1.26,1.26,0,0,1,.37.9,1.49,1.49,0,0,1-.63,1.15,9.19,9.19,0,0,1-2.83,2A8.66,8.66,0,0,1,128.37,25.93Z"/></g></g></svg>